<?xml version="1.0" standalone="yes"?>
<!DOCTYPE svg PUBLIC "-//W3C//DTD SVG 1.1//EN" "http://www.w3.org/Graphics/SVG/1.1/DTD/svg11.dtd">
<svg width="512" height="512" viewBox="0 0 1 1" version="1.1" xmlns="http://www.w3.org/2000/svg">
    <!-- Background -->
    <path fill="#F06060" d="
        M 0.875,0 a 0.125,0.125 1 0 1 0.125,0.125
        v 0.75 a 0.125,0.125 1 0 1 -0.125,0.125
        h -0.75 a 0.125,0.125 1 0 1 -0.125,-0.125
        v -0.75 a 0.125,0.125 1 0 1 0.125,-0.125
        Z
    " />
    <!-- Foreground -->
    <path fill="#E0E0E0" d="
        M 0.1,0.85
        l 0.2,-0.7
        h 0.1
        l 0.1,0.35
        l 0.1,-0.35
        h 0.1
        l 0.2,0.7
        h -0.15

        v -0.15
        c 0,-0.1, -0.05,-0.1, -0.05,-0.15
        v -0.15
        h -0.1
        v 0.15
        c 0,0.05, -0.05,0.05, -0.05,0.15
        v 0.15

        h -0.125

        l 0.025,-0.3
        h -0.2
        l 0.025,0.3

        Z
    " />
</svg>
