<?xml version="1.0" standalone="yes"?>
<!DOCTYPE svg PUBLIC "-//W3C//DTD SVG 1.1//EN" "http://www.w3.org/Graphics/SVG/1.1/DTD/svg11.dtd">
<svg width="256" height="256" version="1.1" xmlns="http://www.w3.org/2000/svg">
    <g transform="scale(256)">
        <!-- Red -->
        <path fill="#F06060" d="
            M 0.1,0.8
            a 0.1,0.1 1 0 1 -0.1,-0.1 a 0.5,0.5 1 0 1 1,0 a 0.1,0.1 1 0 1 -0.1,0.1
            l -0.05,-0.1 a 0.35,0.35 0 1 0 -0.7,0 l -0.05,0.1
            Z
        " />
        <!-- Yellow -->
        <path fill="#FFE060" d="
            M 0.1,0.8
            v -0.1 a 0.4,0.4 1 0 1 0.8,0 v 0.1
            h -0.1 l -0.05,-0.1 a 0.25,0.25 0 1 0 -0.5,0 l -0.05,0.1 h -0.1
            Z
        " />
        <!-- Green -->
        <path fill="#A0E060" d="
            M 0.2,0.8
            v -0.1 a 0.3,0.3 1 0 1 0.6,0 v 0.1
            h -0.1 l -0.05,-0.1 a 0.15,0.15 0 1 0 -0.3,0 l -0.05,0.1 h -0.1
            Z
        " />
        <!-- Blue -->
        <path fill="#70B0F0" d="
            M 0.3,0.8
            v -0.1 a 0.2,0.2 1 0 1 0.4,0 v 0.1
            a 0.1,0.1 1 0 1 -0.1,-0.1 a 0.1,0.1 0 1 0 -0.2,0 a 0.1,0.1 1 0 1 -0.1,0.1
            Z
        " />
    </g>
</svg>
